<?xml version="1.0" encoding="utf-8"?>
<!-- Generator: Adobe Illustrator 16.0.0, SVG Export Plug-In . SVG Version: 6.00 Build 0)  -->
<!DOCTYPE svg PUBLIC "-//W3C//DTD SVG 1.1//EN" "http://www.w3.org/Graphics/SVG/1.1/DTD/svg11.dtd">
<svg version="1.1" id="Layer_1" xmlns:sketch="http://www.bohemiancoding.com/sketch/ns"
	 xmlns="http://www.w3.org/2000/svg" xmlns:xlink="http://www.w3.org/1999/xlink" x="0px" y="0px" width="612px" height="792px"
	 viewBox="0 0 612 792" enable-background="new 0 0 612 792" xml:space="preserve">
<title>more-2</title>
<desc>Created with Sketch Beta.</desc>
<g sketch:type="MSPage">
	<g sketch:type="MSArtboardGroup">
		<path sketch:type="MSShapeGroup" fill="#FFFFFF" d="M231.782,99.128c0,40.989,33.229,74.218,74.218,74.218
			c40.99,0,74.218-33.229,74.218-74.218S346.99,24.91,306,24.91C265.012,24.91,231.782,58.139,231.782,99.128L231.782,99.128
			L231.782,99.128L231.782,99.128z M231.782,396c0,40.99,33.229,74.219,74.218,74.219c40.99,0,74.218-33.229,74.218-74.219
			c0-40.988-33.228-74.218-74.218-74.218C265.012,321.782,231.782,355.012,231.782,396L231.782,396L231.782,396L231.782,396z
			 M231.782,692.872c0,40.99,33.229,74.218,74.218,74.218c40.99,0,74.218-33.228,74.218-74.218
			c0-40.987-33.228-74.218-74.218-74.218C265.012,618.654,231.782,651.885,231.782,692.872L231.782,692.872L231.782,692.872
			L231.782,692.872z"/>
	</g>
</g>
</svg>
